<svg xmlns="http://www.w3.org/2000/svg" viewBox="0 0 110 132">
  <path fill="#f0f1e1" stroke="#f0f1e1" d="m30.192 26.382-3.147 4.383-.037 34.367c-.039 37.542.062
    38.866 3.288 42.96 4.374 5.55 8.701 5.097 24.229-2.54 10.33-5.081 17.929-7.392 18.669-5.679.168.39
    2.416 2.119 4.996 3.843 2.579 1.724 5.986 4.094 7.572 5.266 7.692 5.687 13.694 5.399 18.159-.871C107.329
    103.324 105.498 94 101.15 94c-.425 0-1.646-.788-2.712-1.75-3.788-3.418-9.949-7.739-10.688-7.497-.412.136-.75-.166-.75-.671
    0-1.073-7.145-5.685-8.25-5.326-.412.134-.75-.431-.75-1.256s-.584-1.5-1.299-1.5c-.714
    0-3.19-1.818-5.502-4.039l-4.204-4.04 2.003-2.149C70.099 64.59 71 63.258 71 62.811c0-.446.605-.811
    1.345-.811s2.201-.946 3.248-2.102c1.046-1.157 3.253-2.794 4.905-3.639 1.651-.845 4.577-2.849 6.502-4.453
    1.925-1.604 4.529-3.773 5.788-4.819 1.258-1.047 2.506-1.907 2.774-1.913 1.509-.031 7.315-5.465
    6.774-6.34-.365-.59-.165-.746.459-.361 1.356.838 3.205-2.398 3.205-5.608
    0-3.09-2.187-7.747-3.643-7.757-.629-.004-1.402-.683-1.719-1.508-.676-1.763-2.638-2.019-2.638-.344 0 .635 1.125 2.63 2.5
    4.433s2.484 3.645 2.465 4.094c-.02.449-10.37 8.228-23 17.286C67.334 58.027 57 65.51 57 65.598c0 .088 10.143 7.261 22.54
    15.941 12.397 8.68 22.769 16.152 23.049 16.605.279.452-1.32 3.515-3.554 6.805l-4.063 5.982-10.736-7.621C78.331 99.118
    71.025 93.823 68 91.543c-3.025-2.28-8.425-6.112-12-8.516-3.575-2.403-10.416-7.26-15.203-10.793l-8.702-6.423
    4.702-3.575c12.456-9.468 12.548-9.564 10.029-10.496-1.875-.694-2.017-1.008-.802-1.776C48.137 48.628 49 48.783 49 50.5c0
    2.173.382 2.016 8.826-3.637 9.786-6.552 15.148-11.142
    12.556-10.747-1.984.302-12.999-3.554-15.076-5.277-.67-.556-1.758-.678-2.417-.271-.813.503-.935.315-.379-.583.599-.97.358-1.149-.898-.666-1.019.391-1.468.257-1.105-.33.336-.544-.091-.989-.948-.989S48
    27.498 48 26.883c0-.624-.882-.886-2.001-.593-1.101.288-1.75.115-1.441-.383.574-.929.417-.999-3.1-1.388-1.123-.124-3.006-.742-4.184-1.372-3.216-1.722-3.672-1.514-7.082
    3.235m41.266 11.917c-12.123 8.911-25.553 18.74-29.845 21.844l-7.803 5.643 29.345
    20.897c16.14 11.494 29.841 21.203 30.448 21.576 1.068.656 7.397-7.069 7.397-9.028
    0-.518-10.35-8.233-23-17.145-12.65-8.911-23-16.298-23-16.415 0-.117 10.336-7.628 22.969-16.692 12.633-9.063 22.983-16.848
    23-17.299.045-1.182-5.932-9.689-6.767-9.631-.386.027-10.62 16.25M46 85c0 .55.423 1 7.34-22.744
    1s1.219-.45 85m2.507
  " fill-rule="evenodd"/>
    <path fill="#558220" stroke="#558220"
      d="M30.558 26.627 27 31.288v68.037l3.104 4.837c1.708 2.661 3.54 4.838 4.072 4.838 1.27 0
      33.76-16.35 33.783-17 .009-.275-2.434-2.202-5.43-4.282l-5.448-3.781-8.144 4.095c-4.479
      2.252-8.37 3.869-8.646 3.593-.729-.73-.615-14.027.14-16.409.5-1.573-.368-2.85-3.91-5.752l-4.552-3.731
      4.027-2.962 4.028-2.962-.001-8.654c-.002-13.109-.301-12.298 3.894-10.546 1.971.823 5.463
      2.597 7.761 3.944 5.305 3.107 5.147 3.124 10.766-1.166 5.641-4.307
      6.701-3.195-12.636-13.256l-15.691-8.164-3.559 4.66m36.384 15.498c-15.093 11.078-28.471
      20.947-29.728 21.93l-2.285 1.789 3.285 2.409c1.807 1.325 6.436 4.658 10.286 7.406 3.85
      2.748 15.325 10.992 25.5 18.319 10.175 7.327 19.094 13.367 19.82 13.422 1.854.14
      7.898-8.326 6.571-9.206-.576-.382-11.251-7.846-23.722-16.586L53.993 65.715 57.747
      63c2.064-1.494 12.641-9.105 23.503-16.914C92.112 38.276 101 31.658
      101 31.377c0-.428-3.889-6.022-6.003-8.635-.337-.417-12.962 8.305-28.055 19.383m-7.213
      21.967c-.974.567-1.51 1.453-1.191" fill-rule="evenodd"/>
    <path fill="#48220a" stroke="#48220a"
      d="M30.25 27.497 27 31.916V98.527l3.516 5.22 3.515 5.22 15.735-8.136c8.654-4.474 16.073-8.429
      16.488-8.788.796-.687-7.602-7.043-9.305-7.043-.547 0-4.573 1.8-8.949 4-4.376 2.2-8.191 4-8.478 4-.287
      0-.522-4.892-.522-10.871V71.258l-3.493-2.379c-4.31-2.935-4.31-3.029-.007-6.311l3.5-2.67V48.949c0-6.022.337-10.936.75-10.92.413.016
      4.461 1.978 8.997 4.361l8.247 4.331 5.028-3.52
      5.028-3.519-16.123-8.341c-8.868-4.588-16.416-8.323-16.775-8.302-.359.021-2.114 2.028-3.902 4.458" fill-rule="evenodd"/>
    </svg>
