<svg version="1.1" id="Layer_1" xmlns="http://www.w3.org/2000/svg" xmlns:xlink="http://www.w3.org/1999/xlink" x="0px" y="0px"
	 width="100%" viewBox="0 0 74 87" enable-background="new 0 0 74 87" xml:space="preserve">
<path fill="#51260D" opacity="1.000000" stroke="none"
	d="
M40.066437,69.078003
	C42.402218,71.508018 40.110512,72.052132 38.516792,72.881897
	C29.315329,77.672531 20.114059,82.463547 10.956365,87.627220
	C9.933331,88.000000 8.866661,88.000000 7.381424,87.652817
	C4.975237,84.537094 2.987619,81.768547 1.000000,79.000000
	C1.000000,78.555557 1.000000,78.111107 1.228187,77.348877
	C1.456374,77.031090 1.913699,77.041008 2.301630,77.044174
	C6.126804,75.037849 9.564046,73.028366 13.371206,71.115570
	C19.846197,68.477852 25.951267,65.743454 32.339108,63.189919
	C35.103397,65.273186 37.584915,67.175591 40.066437,69.078003
z"/>
<path fill="#50250C" opacity="1.000000" stroke="none"
	d="
M8.666667,1.000000
	C18.321487,5.941813 27.671999,10.830457 36.931900,15.885092
	C38.259026,16.609518 39.148556,18.135593 39.972485,19.902147
	C37.812534,22.021090 35.920708,23.528557 33.721535,25.104542
	C32.596622,25.816788 31.779049,26.460516 30.642673,26.951668
	C24.554132,23.864815 18.784393,20.930538 12.930342,17.658123
	C9.228440,15.210702 5.610852,13.101418 1.744927,10.991562
	C1.496591,10.990988 1.000000,11.000000 1.000000,11.000000
	C1.000000,10.555555 1.000000,10.111111 1.345654,9.359093
	C3.460872,6.367680 5.230436,3.683840 7.000000,1.000000
	C7.444445,1.000000 7.888889,1.000000 8.666667,1.000000
z"/>
<path fill="#395D1A" opacity="1.000000" stroke="none"
	d="
M68.250000,88.000000
	C63.409794,84.558907 58.819588,81.117821 54.454849,77.352570
	C56.019592,75.832359 57.747158,74.858528 58.593182,73.380203
	C59.510681,71.776978 59.607143,69.703873 60.061646,67.835678
	C64.809044,70.882500 69.556435,73.929321 74.651917,76.988068
	C75.000000,77.444443 75.000000,77.888893 74.712234,78.842369
	C72.616318,82.234268 70.808159,85.117134 69.000000,88.000000
	C69.000000,88.000000 68.500000,88.000000 68.250000,88.000000
z"/>
<path fill="#375A19" opacity="1.000000" stroke="none"
	d="
M58.295975,8.430426
	C61.378178,6.115438 64.460381,3.800449 67.771286,1.242731
	C68.000000,1.000000 68.500000,1.000000 68.825142,1.333021
	C71.100189,4.110694 73.050095,6.555347 75.000000,9.000000
	C75.000000,9.750000 75.000000,10.500000 75.000000,11.625000
	C69.360703,15.739883 63.721401,19.479767 57.677628,22.993309
	C58.182297,21.551563 59.313087,20.441582 59.952263,19.097773
	C61.113625,16.656111 62.449326,14.122814 62.713032,11.526278
	C62.801739,10.652872 59.855228,9.471203 58.295975,8.430426
z"/>
<path fill="#37281B" opacity="1.000000" stroke="none"
	d="
M1.000000,11.468657
	C1.000000,11.000000 1.496591,10.990988 1.741704,11.461083
	C1.962444,33.634457 1.938071,55.337730 1.913699,77.041008
	C1.913699,77.041008 1.456374,77.031090 1.228187,77.015549
	C1.000000,55.312439 1.000000,33.624878 1.000000,11.468657
z"/>
<path fill="#569415" opacity="1.000000" stroke="none"
	d="
M28.100742,44.241158
	C28.405436,44.592892 28.710131,44.944626 29.028385,45.946518
	C29.176201,48.533947 29.310459,50.471230 29.483627,52.969982
	C26.869339,53.352982 24.301683,53.729153 21.405754,54.035561
	C18.433361,52.310772 15.789239,50.655750 13.013161,48.743591
	C11.082977,46.978619 9.284750,45.470787 7.183367,43.708755
	C9.913626,41.994808 11.527728,40.981541 13.506083,39.985275
	C16.580343,38.331989 19.290352,36.661701 22.334309,34.993660
	C23.113955,34.998375 23.559650,35.000847 24.273169,35.224052
	C25.684801,37.961754 26.828611,40.478722 27.993801,43.308159
	C28.043701,43.827473 28.072222,44.034313 28.100742,44.241158
z"/>
<path fill="#416919" opacity="1.000000" stroke="none"
	d="
M60.033459,67.624985
	C59.607143,69.703873 59.510681,71.776978 58.593182,73.380203
	C57.747158,74.858528 56.019592,75.832359 54.292839,77.055138
	C53.905354,77.081871 53.949409,77.051918 53.908737,76.716736
	C53.107521,76.096474 52.346973,75.811394 51.586430,75.526306
	C51.643326,75.367363 51.700218,75.208412 51.666206,74.937645
	C50.956833,74.593361 50.338364,74.360901 49.719894,74.128448
	C47.037407,72.437477 44.354923,70.746506 41.409424,68.630692
	C46.019157,68.537888 47.356071,65.771263 47.090996,61.509396
	C47.042488,60.729500 47.333870,59.928463 47.468357,59.137184
	C47.808723,59.358780 48.149090,59.580376 48.938236,60.181854
	C49.939617,60.697025 50.492214,60.832314 51.044811,60.967598
	C51.044811,60.967602 51.003880,61.002518 51.149212,61.213001
	C51.620995,61.559422 51.947445,61.695358 52.273895,61.831291
	C52.273895,61.831291 52.115326,61.864361 52.216568,62.080193
	C52.861835,62.534248 53.405861,62.772472 53.949890,63.010693
	C54.239197,63.169472 54.528507,63.328251 54.955303,64.105820
	C56.530655,65.444016 57.968517,66.163422 59.406384,66.882820
	C59.732903,66.917007 59.932533,67.094162 60.033459,67.624985
z"/>
<path fill="#4B751B" opacity="1.000000" stroke="none"
	d="
M47.448921,59.152756
	C47.333870,59.928463 47.042488,60.729500 47.090996,61.509396
	C47.356071,65.771263 46.019157,68.537888 41.083992,68.499527
	C41.021576,68.793213 40.542274,68.930405 40.304356,69.004204
	C37.584915,67.175591 35.103397,65.273186 32.261547,62.917118
	C31.588936,62.013393 31.276653,61.563324 31.144783,60.855862
	C32.847992,60.824261 34.370792,61.050056 36.120106,61.309433
	C37.675514,58.665272 39.605785,56.169888 36.102303,53.273666
	C35.318722,52.625904 35.407379,50.923019 35.094467,49.705902
	C38.316792,51.861366 41.539116,54.016830 44.906998,56.864559
	C45.855560,58.085068 46.658558,58.613316 47.461555,59.141563
	C47.461555,59.141563 47.429489,59.168324 47.448921,59.152756
z"/>
<path fill="#3C6418" opacity="1.000000" stroke="none"
	d="
M58.298840,8.444554
	C59.855228,9.471203 62.801739,10.652872 62.713032,11.526278
	C62.449326,14.122814 61.113625,16.656111 59.952263,19.097773
	C59.313087,20.441582 58.182297,21.551563 57.374596,23.149284
	C57.476032,23.531603 57.451469,23.502886 57.097469,23.379711
	C55.850830,23.888294 54.958187,24.520052 54.065544,25.151808
	C52.955425,26.104570 51.845303,27.057331 50.482712,27.748075
	C50.645985,25.996735 50.763233,24.327690 51.531986,23.050913
	C54.105343,18.776955 53.090706,16.584938 48.035282,16.014904
	C50.130508,14.380198 52.225735,12.745491 55.057137,11.045949
	C56.620621,10.137980 57.447929,9.294848 58.275238,8.451716
	C58.275238,8.451717 58.301704,8.458683 58.298840,8.444554
z"/>
<path fill="#52821A" opacity="1.000000" stroke="none"
	d="
M34.917690,49.431755
	C35.407379,50.923019 35.318722,52.625904 36.102303,53.273666
	C39.605785,56.169888 37.675514,58.665272 36.120106,61.309433
	C34.370792,61.050056 32.847992,60.824261 30.852705,60.681381
	C27.498154,58.544636 24.616091,56.324978 21.734028,54.105324
	C24.301683,53.729153 26.869339,53.352982 29.483627,52.969982
	C29.310459,50.471230 29.176201,48.533947 29.078953,46.177193
	C30.990946,46.891010 32.865929,48.024311 34.917690,49.431755
z"/>
<path fill="#4B741B" opacity="1.000000" stroke="none"
	d="
M34.028877,25.036024
	C35.920708,23.528557 37.812534,22.021090 39.872551,20.226543
	C41.130615,19.668694 42.220501,19.397928 43.786961,19.367561
	C44.318443,21.523098 44.277634,23.447048 44.452881,25.351110
	C44.664127,27.646376 45.058807,29.924759 45.374081,32.210449
	C44.213493,33.141254 43.052906,34.072056 41.275032,34.883698
	C38.448120,31.521700 36.238499,28.278862 34.028877,25.036024
z"/>
<path fill="#53801D" opacity="1.000000" stroke="none"
	d="
M33.721535,25.104542
	C36.238499,28.278862 38.448120,31.521700 40.962307,34.949997
	C37.779675,37.762569 34.292480,40.389675 30.410690,43.017048
	C30.016098,43.017311 29.905319,42.899303 29.982117,42.546814
	C32.558605,38.788937 34.749977,35.356926 31.361645,31.452288
	C28.951351,31.991508 26.887423,32.453243 24.987381,32.614189
	C27.088001,30.577019 29.024738,28.840631 30.961475,27.104244
	C31.779049,26.460516 32.596622,25.816788 33.721535,25.104542
z"/>
<path fill="#416B16" opacity="1.000000" stroke="none"
	d="
M45.685551,32.126694
	C45.058807,29.924759 44.664127,27.646376 44.452881,25.351110
	C44.277634,23.447048 44.318443,21.523098 44.124454,19.285362
	C44.728642,18.318720 45.471912,17.674679 46.760921,16.903942
	C47.541138,16.528131 47.775612,16.279018 48.010082,16.029903
	C48.010082,16.029903 48.006470,15.997388 48.020874,16.006145
	C53.090706,16.584938 54.105343,18.776955 51.531986,23.050913
	C50.763233,24.327690 50.645985,25.996735 50.150707,27.787491
	C50.071171,28.088926 50.047230,28.030634 49.839180,28.135201
	C49.419945,28.691048 49.208763,29.142330 48.997581,29.593613
	C47.997395,30.410051 46.997208,31.226492 45.685551,32.126694
z"/>
<path fill="#395D1A" opacity="1.000000" stroke="none"
	d="
M59.223942,66.595169
	C57.968517,66.163422 56.530655,65.444016 55.049751,64.346252
	C56.351643,64.747757 57.696571,65.527641 59.223942,66.595169
z"/>
<path fill="#416919" opacity="1.000000" stroke="none"
	d="
M47.287056,58.907597
	C46.658558,58.613316 45.855560,58.085068 45.072571,57.150734
	C45.765907,57.387642 46.439232,58.030636 47.287056,58.907597
z"/>
<path fill="#375A19" opacity="1.000000" stroke="none"
	d="
M54.391205,25.105972
	C54.958187,24.520052 55.850830,23.888294 57.089294,23.393463
	C56.529037,24.040306 55.622952,24.550222 54.391205,25.105972
z"/>
<path fill="#53801D" opacity="1.000000" stroke="none"
	d="
M28.403111,44.177177
	C28.072222,44.034313 28.043701,43.827473 28.317062,43.303581
	C29.047739,42.957458 29.476528,42.928383 29.905319,42.899303
	C29.905319,42.899303 30.016098,43.017311 30.071472,43.076855
	C29.653057,43.461998 29.179270,43.787598 28.403111,44.177177
z"/>
<path fill="#3C6418" opacity="1.000000" stroke="none"
	d="
M49.237823,29.506262
	C49.208763,29.142330 49.419945,28.691048 49.870068,28.141415
	C49.898689,28.501678 49.688374,28.960293 49.237823,29.506262
z"/>
<path fill="#395D1A" opacity="1.000000" stroke="none"
	d="
M50.901711,60.698135
	C50.492214,60.832314 49.939617,60.697025 49.207661,60.334534
	C49.605072,60.214443 50.181843,60.321556 50.901711,60.698135
z"/>
<path fill="#395D1A" opacity="1.000000" stroke="none"
	d="
M53.808281,62.753891
	C53.405861,62.772472 52.861835,62.534248 52.226936,61.999870
	C52.646271,61.968170 53.156467,62.232632 53.808281,62.753891
z"/>
<path fill="#395D1A" opacity="1.000000" stroke="none"
	d="
M52.151581,61.585835
	C51.947445,61.695358 51.620995,61.559422 51.159805,61.188381
	C51.359795,61.082314 51.694530,61.211346 52.151581,61.585835
z"/>
<path fill="#375A19" opacity="1.000000" stroke="none"
	d="
M58.006241,8.575409
	C57.447929,9.294848 56.620621,10.137980 55.387417,10.976130
	C55.900093,10.213798 56.818668,9.456450 58.006241,8.575409
z"/>
<path fill="#3C6418" opacity="1.000000" stroke="none"
	d="
M47.741978,16.069931
	C47.775612,16.279018 47.541138,16.528131 47.057343,16.852680
	C47.029968,16.655396 47.251923,16.382675 47.741978,16.069931
z"/>
<path fill="#395D1A" opacity="1.000000" stroke="none"
	d="
M51.761238,75.756851
	C52.346973,75.811394 53.107521,76.096474 53.902161,76.742325
	C53.269512,76.731194 52.602779,76.359299 51.761238,75.756851
z"/>
<path fill="#395D1A" opacity="1.000000" stroke="none"
	d="
M49.878757,74.387085
	C50.338364,74.360901 50.956833,74.593361 51.598549,75.181641
	C51.093735,75.240219 50.565678,74.942970 49.878757,74.387085
z"/>
<path fill="#1F0B02" opacity="1.000000" stroke="none"
	d="
M13.141831,39.968269
	C11.527728,40.981541 9.913626,41.994808 7.183367,43.708755
	C9.284750,45.470787 11.082977,46.978619 12.937965,49.211319
	C12.996914,56.963749 12.999102,63.991322 13.001289,71.018890
	C9.564046,73.028366 6.126804,75.037849 2.301630,77.044174
	C1.938071,55.337730 1.962444,33.634457 1.990040,11.461658
	C5.610852,13.101418 9.228440,15.210702 12.915325,18.127609
	C13.037025,25.946245 13.089428,32.957256 13.141831,39.968269
z"/>
<path fill="#528915" opacity="1.000000" stroke="none"
	d="
M23.834133,33.568203
	C23.902855,33.256485 24.088238,33.048958 24.606888,32.930298
	C26.887423,32.453243 28.951351,31.991508 31.361645,31.452288
	C34.749977,35.356926 32.558605,38.788937 29.982117,42.546814
	C29.476528,42.928383 29.047739,42.957458 28.295685,42.991112
	C26.828611,40.478722 25.684801,37.961754 24.243799,34.863632
	C23.909117,34.044388 23.871626,33.806297 23.834133,33.568203
z"/>
<path fill="#53801D" opacity="1.000000" stroke="none"
	d="
M23.536228,33.649338
	C23.871626,33.806297 23.909117,34.044388 23.975977,34.642899
	C23.559650,35.000847 23.113955,34.998375 22.334309,34.993656
	C22.413015,34.571098 22.825670,34.150787 23.536228,33.649338
z"/>
</svg>
