<?xml version="1.0" standalone="no"?>
<!DOCTYPE svg PUBLIC "-//W3C//DTD SVG 20010904//EN"
 "http://www.w3.org/TR/2001/REC-SVG-20010904/DTD/svg10.dtd">
<svg version="1.0" xmlns="http://www.w3.org/2000/svg"
 width="110.000000pt" height="132.000000pt" viewBox="0 0 110.000000 132.000000"
 preserveAspectRatio="xMidYMid meet">
<metadata>
Created by potrace 1.16, written by Peter Selinger 2001-2019
</metadata>
<g transform="translate(0.000000,132.000000) scale(0.100000,-0.100000)"
fill="#c5a250" stroke="none">
<path d="M334 1054 l-35 -47 0 -340 0 -340 31 -49 c17 -26 34 -48 38 -49 9 -1
340 165 340 171 1 3 -24 22 -54 43 l-54 38 -80 -41 c-44 -22 -85 -40 -91 -40
-6 0 -9 36 -6 100 l4 100 -39 31 -40 31 32 24 c45 33 47 38 42 108 -3 33 -1
78 4 99 l8 39 79 -41 c44 -23 83 -41 86 -41 16 0 101 73 93 80 -4 4 -79 44
-165 88 l-157 82 -36 -46z"/>
</g>
<g transform="translate(0.000000,132.000000) scale(0.100000,-0.100000)"
fill="#48220a" stroke="none">
<path d="M318 1054 l-35 -47 0 -340 0 -340 31 -49 c17 -26 34 -48 38 -49 9 -1
340 165 340 171 1 3 -24 22 -54 43 l-54 38 -80 -41 c-44 -22 -85 -40 -91 -40
-6 0 -9 36 -6 100 l4 100 -39 31 -40 31 32 24 c45 33 47 38 42 108 -3 33 -1
78 4 99 l8 39 79 -41 c44 -23 83 -41 86 -41 16 0 101 73 93 80 -4 4 -79 44
-165 88 l-157 82 -36 -46z"/>
</g>
<g transform="translate(0.000000,132.000000) scale(0.100000,-0.100000)"
fill="#d0e181" stroke="none">
<path d="M650 890 c-137 -84 -299 -225 -293 -233 7 -8 28 -24 51 -40 27 -20
157 -112 292 -209 139 -101 252 -181 256 -181 11 4 74 94 69 98 -5 6 -112 80
-240 170 -132 93 -234 170 -229 174 8 8 114 84 240 173 l232 166 -20 33 c-13
19 -28 41 -37 53 -20 26 -22 26 -316 -199z"/>
</g>
<g transform="translate(0.000000,132.000000) scale(0.100000,-0.100000)"
fill="#639028" stroke="none">
<path d="M649 883 c-163 -120 -295 -221 -293 -225 3 -4 24 -20 47 -36 23 -16
153 -108 288 -205 135 -97 248 -177 252 -177 7 0 70 90 65 94 -1 2 -108 76
-236 166 -128 89 -230 166 -225 170 4 4 110 80 236 169 l227 162 -16 28 c-9
15 -24 37 -33 49 -16 22 -17 22 -312 -195z"/>
</g>
</svg>
