<svg version="1.1" id="Layer_1" xmlns="http://www.w3.org/2000/svg" xmlns:xlink="http://www.w3.org/1999/xlink" x="0px" y="0px"
	 width="100%" viewBox="0 0 260 200" enable-background="new 0 0 260 200" xml:space="preserve">
<path fill="#020204" opacity="1.000000" stroke="none" 
	d="
M191.000000,201.000000 
	C127.333336,201.000000 64.166672,201.000000 1.000009,201.000000 
	C1.000006,134.333344 1.000006,67.666679 1.000003,1.000017 
	C87.666656,1.000012 174.333313,1.000012 261.000000,1.000006 
	C261.000000,67.666649 261.000000,134.333298 261.000000,200.999969 
	C237.833328,201.000000 214.666672,201.000000 191.000000,201.000000 
M196.577850,135.093277 
	C203.667282,124.510353 207.358139,112.816002 207.907593,100.124405 
	C209.521667,62.842285 179.875153,30.269777 142.513290,29.102436 
	C120.383316,28.411003 98.215576,28.928087 76.064819,28.902815 
	C73.118332,28.899454 70.171844,28.902353 67.244629,28.902353 
	C67.244629,74.916412 67.244629,120.427864 67.244629,166.086288 
	C90.573181,166.086288 113.548973,165.923447 136.521439,166.130005 
	C161.784653,166.357162 181.611542,156.235519 196.577850,135.093277 
z"/>
<path fill="#FAFAFA" opacity="1.000000" stroke="none" 
	d="
M196.407654,135.412415 
	C181.611542,156.235519 161.784653,166.357162 136.521439,166.130005 
	C113.548973,165.923447 90.573181,166.086288 67.244629,166.086288 
	C67.244629,120.427864 67.244629,74.916412 67.244629,28.902353 
	C70.171844,28.902353 73.118332,28.899454 76.064819,28.902815 
	C98.215576,28.928087 120.383316,28.411003 142.513290,29.102436 
	C179.875153,30.269777 209.521667,62.842285 207.907593,100.124405 
	C207.358139,112.816002 203.667282,124.510353 196.407654,135.412415 
M89.616089,45.886757 
	C87.855080,45.886757 86.094063,45.886757 84.229118,45.886757 
	C84.229118,80.613319 84.229118,114.625435 84.229118,148.819611 
	C85.362740,148.938583 86.163467,149.095215 86.964340,149.095932 
	C103.442390,149.110764 119.921844,149.227234 136.397629,149.033768 
	C141.177628,148.977631 146.040482,148.444809 150.705505,147.409912 
	C173.251068,142.408249 190.026672,122.213638 190.520325,99.551331 
	C190.876770,83.188019 184.968491,69.631477 172.709503,58.705730 
	C161.904297,49.075657 149.003967,45.952564 135.030182,45.898323 
	C120.216797,45.840828 105.403008,45.886063 89.616089,45.886757 
z"/>
<path fill="#08080A" opacity="1.000000" stroke="none" 
	d="
M90.102745,45.886593 
	C105.403008,45.886063 120.216797,45.840828 135.030182,45.898323 
	C149.003967,45.952564 161.904297,49.075657 172.709503,58.705730 
	C184.968491,69.631477 190.876770,83.188019 190.520325,99.551331 
	C190.026672,122.213638 173.251068,142.408249 150.705505,147.409912 
	C146.040482,148.444809 141.177628,148.977631 136.397629,149.033768 
	C119.921844,149.227234 103.442390,149.110764 86.964340,149.095932 
	C86.163467,149.095215 85.362740,148.938583 84.229118,148.819611 
	C84.229118,114.625435 84.229118,80.613319 84.229118,45.886757 
	C86.094063,45.886757 87.855080,45.886757 90.102745,45.886593 
M129.497116,135.161346 
	C140.415176,135.569717 151.011139,134.929840 160.415329,128.199951 
	C174.857834,117.864494 178.484940,101.900650 175.194092,88.735466 
	C170.533188,70.089302 155.730789,60.503254 139.741180,59.963203 
	C126.933723,59.530640 114.103081,59.773804 101.282677,59.752888 
	C100.190506,59.751106 99.097893,60.019596 98.168785,60.141171 
	C98.168785,74.907784 98.168785,89.328529 98.168785,104.311867 
	C102.216568,104.311867 106.021858,104.055260 109.776634,104.381027 
	C113.873032,104.736427 115.349403,103.451233 115.143684,99.169472 
	C114.796150,91.936043 115.048317,84.673805 115.048317,77.192078 
	C123.788567,77.192078 131.773438,76.826370 139.711731,77.278412 
	C151.410431,77.944588 159.615387,87.055573 159.170319,98.169441 
	C158.725586,109.275757 149.775909,117.743668 138.245300,117.932831 
	C135.151260,117.983582 132.055679,117.940514 128.739288,117.940514 
	C128.739288,123.885460 128.739288,129.195984 129.497116,135.161346 
M114.242386,118.089584 
	C108.824829,118.089584 103.407265,118.089584 98.072266,118.089584 
	C98.072266,124.135208 98.072266,129.553436 98.072266,134.922546 
	C103.788689,134.922546 109.205429,134.922546 114.913307,134.922546 
	C114.913307,129.350998 114.913307,124.063316 114.242386,118.089584 
z"/>
<path fill="#F9F9F9" opacity="1.000000" stroke="none" 
	d="
M129.118195,134.833923 
	C128.739288,129.195984 128.739288,123.885460 128.739288,117.940514 
	C132.055679,117.940514 135.151260,117.983582 138.245300,117.932831 
	C149.775909,117.743668 158.725586,109.275757 159.170319,98.169441 
	C159.615387,87.055573 151.410431,77.944588 139.711731,77.278412 
	C131.773438,76.826370 123.788567,77.192078 115.048317,77.192078 
	C115.048317,84.673805 114.796150,91.936043 115.143684,99.169472 
	C115.349403,103.451233 113.873032,104.736427 109.776634,104.381027 
	C106.021858,104.055260 102.216568,104.311867 98.168785,104.311867 
	C98.168785,89.328529 98.168785,74.907784 98.168785,60.141171 
	C99.097893,60.019596 100.190506,59.751106 101.282677,59.752888 
	C114.103081,59.773804 126.933723,59.530640 139.741180,59.963203 
	C155.730789,60.503254 170.533188,70.089302 175.194092,88.735466 
	C178.484940,101.900650 174.857834,117.864494 160.415329,128.199951 
	C151.011139,134.929840 140.415176,135.569717 129.118195,134.833923 
z"/>
<path fill="#F7F7F7" opacity="1.000000" stroke="none" 
	d="
M114.577850,118.432610 
	C114.913307,124.063316 114.913307,129.350998 114.913307,134.922546 
	C109.205429,134.922546 103.788689,134.922546 98.072266,134.922546 
	C98.072266,129.553436 98.072266,124.135208 98.072266,118.089584 
	C103.407265,118.089584 108.824829,118.089584 114.577850,118.432610 
z"/>
</svg>