<svg version="1.1" id="Layer_1" xmlns="http://www.w3.org/2000/svg" xmlns:xlink="http://www.w3.org/1999/xlink" x="0px" y="0px"
	 width="100%" viewBox="0 0 225 225" enable-background="new 0 0 225 225" xml:space="preserve">
<path fill="#FE9800" opacity="1.000000" stroke="none" 
	d="
M125.000000,226.000000 
	C83.741211,226.000000 42.482414,226.000000 1.000000,226.000000 
	C1.000000,186.646057 1.000000,147.291687 1.266629,107.217361 
	C4.189703,95.300056 9.271200,85.545952 19.405399,79.472305 
	C23.291956,77.142998 23.869339,74.856049 22.833509,70.767403 
	C18.274256,52.771057 30.144896,31.297499 47.610844,24.887959 
	C57.120163,21.398289 66.596840,20.906256 76.012474,23.955507 
	C78.681892,20.389091 80.858719,17.035419 83.476891,14.071627 
	C89.745903,6.975065 98.307907,3.831249 107.000000,1.000000 
	C146.595139,1.000000 186.190262,1.000000 226.000000,1.000000 
	C226.000000,42.020645 226.000000,83.041664 225.649414,124.582886 
	C223.846405,127.781731 222.630371,130.628265 220.879013,133.094650 
	C218.887650,135.899048 216.417938,138.363785 214.101135,140.511902 
	C214.039398,131.221451 214.236893,122.389221 213.977127,113.570465 
	C213.605392,100.950546 207.669601,91.710594 196.074356,86.522583 
	C192.766403,85.042519 189.047012,84.482101 185.449631,83.481430 
	C195.896530,68.481163 195.542679,53.490559 184.617966,42.501827 
	C173.573990,31.393152 158.999924,31.019173 143.433563,41.445026 
	C138.919525,22.586903 129.349579,13.233538 114.168732,12.991217 
	C106.174675,12.863614 99.204964,15.531034 93.301697,20.997328 
	C87.338951,26.518700 84.769394,33.650066 83.724892,41.604725 
	C68.246948,31.318876 54.278923,31.373791 43.307472,41.586208 
	C37.294800,47.182899 34.190643,54.107273 33.862133,62.340187 
	C33.535671,70.521744 36.729053,77.415512 41.830883,83.757500 
	C22.002346,87.006073 12.972237,97.596771 12.971963,117.137077 
	C12.971570,145.114624 12.967956,173.092178 12.973950,201.069733 
	C12.976227,211.691269 15.997869,214.764847 26.606693,214.792679 
	C41.428032,214.831573 56.249599,214.778000 71.070976,214.808304 
	C94.380104,214.855972 117.689148,214.940582 140.849884,215.314285 
	C136.365479,218.284348 132.009094,220.917511 127.708511,223.638916 
	C126.708191,224.271896 125.897789,225.204987 125.000000,226.000000 
z"/>
<path fill="#FFB13B" opacity="1.000000" stroke="none" 
	d="
M106.531342,1.000000 
	C98.307907,3.831249 89.745903,6.975065 83.476891,14.071627 
	C80.858719,17.035419 78.681892,20.389091 76.012474,23.955507 
	C66.596840,20.906256 57.120163,21.398289 47.610844,24.887959 
	C30.144896,31.297499 18.274256,52.771057 22.833509,70.767403 
	C23.869339,74.856049 23.291956,77.142998 19.405399,79.472305 
	C9.271200,85.545952 4.189703,95.300056 1.266629,106.748703 
	C1.000000,71.739723 1.000000,36.479443 1.000000,1.000000 
	C36.020588,1.000000 71.041634,1.000000 106.531342,1.000000 
z"/>
<path fill="#DE8500" opacity="1.000000" stroke="none" 
	d="
M214.156128,140.976151 
	C216.417938,138.363785 218.887650,135.899048 220.879013,133.094650 
	C222.630371,130.628265 223.846405,127.781731 225.649414,125.051544 
	C226.000000,158.593597 226.000000,192.187195 226.000000,226.000000 
	C192.646088,226.000000 159.291702,226.000000 125.468658,226.000000 
	C125.897789,225.204987 126.708191,224.271896 127.708511,223.638916 
	C132.009094,220.917511 136.365479,218.284348 141.311615,215.225433 
	C160.857391,214.824097 179.793121,214.817520 198.728836,214.808151 
	C211.415726,214.801880 214.009735,212.235199 214.029388,199.766708 
	C214.060257,180.169846 214.112778,160.572998 214.156128,140.976151 
z"/>
<path fill="#030202" opacity="1.000000" stroke="none" 
	d="
M214.101135,140.511902 
	C214.112778,160.572998 214.060257,180.169846 214.029388,199.766708 
	C214.009735,212.235199 211.415726,214.801880 198.728836,214.808151 
	C179.793121,214.817520 160.857391,214.824097 141.459961,214.920700 
	C117.689148,214.940582 94.380104,214.855972 71.070976,214.808304 
	C56.249599,214.778000 41.428032,214.831573 26.606693,214.792679 
	C15.997869,214.764847 12.976227,211.691269 12.973950,201.069733 
	C12.967956,173.092178 12.971570,145.114624 12.971963,117.137077 
	C12.972237,97.596771 22.002346,87.006073 41.830883,83.757500 
	C36.729053,77.415512 33.535671,70.521744 33.862133,62.340187 
	C34.190643,54.107273 37.294800,47.182899 43.307472,41.586208 
	C54.278923,31.373791 68.246948,31.318876 83.724892,41.604725 
	C84.769394,33.650066 87.338951,26.518700 93.301697,20.997328 
	C99.204964,15.531034 106.174675,12.863614 114.168732,12.991217 
	C129.349579,13.233538 138.919525,22.586903 143.433563,41.445026 
	C158.999924,31.019173 173.573990,31.393152 184.617966,42.501827 
	C195.542679,53.490559 195.896530,68.481163 185.449631,83.481430 
	C189.047012,84.482101 192.766403,85.042519 196.074356,86.522583 
	C207.669601,91.710594 213.605392,100.950546 213.977127,113.570465 
	C214.236893,122.389221 214.039398,131.221451 214.101135,140.511902 
M130.730820,164.447830 
	C133.219681,165.114868 135.708527,165.781906 138.993118,166.662216 
	C138.993118,158.896454 138.889969,152.327652 139.067001,145.766403 
	C139.110245,144.163681 140.071915,142.585770 140.466125,141.927795 
	C140.336990,155.573303 140.125183,169.218658 140.101135,182.864365 
	C140.075317,197.504807 150.831696,208.888748 165.009628,209.439850 
	C178.639252,209.969635 190.481339,199.676804 191.451401,185.558334 
	C192.076584,176.459305 191.460068,167.274979 192.207474,158.447556 
	C192.473099,162.356628 192.626358,166.278473 193.068665,170.167450 
	C193.212723,171.434052 193.937241,173.536896 194.693756,173.679550 
	C198.506638,174.398544 202.417816,174.596237 206.692688,175.015991 
	C206.692688,161.104980 206.883636,147.849091 206.600540,134.603333 
	C206.484146,129.157623 203.422058,124.446007 197.983582,123.745377 
	C191.730682,122.939827 185.249939,123.903008 178.156403,123.913193 
	C169.488495,119.479927 160.919510,119.849365 151.664886,123.952087 
	C147.325516,123.686310 142.986130,123.420532 138.762909,122.273430 
	C134.058334,121.635559 129.353745,120.997688 125.045471,120.413551 
	C124.123405,122.772827 123.612396,124.080345 122.917465,124.538742 
	C121.682503,124.023544 120.467407,123.130211 119.208855,123.064102 
	C115.444916,122.866379 111.629730,122.696114 107.905106,123.126190 
	C106.224648,123.320236 104.711372,124.962105 102.964211,125.144241 
	C102.587418,123.767815 102.210625,122.391388 101.893669,121.233551 
	C97.038597,121.233551 92.554703,121.233551 87.948235,121.233551 
	C88.095749,122.700691 88.209846,123.835487 87.566734,124.678978 
	C83.110001,121.540390 78.475075,122.796570 73.130318,123.931618 
	C64.297676,119.435234 55.608482,119.809891 46.690014,123.876152 
	C42.457317,123.584473 38.225853,123.077507 33.991631,123.053383 
	C28.155947,123.020134 22.639143,127.374016 22.257820,133.142181 
	C21.725443,141.195374 22.123642,149.310059 22.123642,157.959641 
	C26.379889,157.959641 30.160654,158.077805 33.921936,157.859833 
	C34.673176,157.816299 35.350067,156.489761 36.708786,156.049149 
	C40.343220,163.864090 46.053066,169.346451 54.551350,171.451065 
	C57.432987,172.164719 60.496021,172.124313 63.402962,172.762115 
	C68.502220,173.880936 71.827942,177.968460 72.046585,182.979706 
	C72.286331,188.474503 69.427002,192.662155 64.254288,194.391998 
	C57.465073,196.662430 52.480442,193.399902 48.914974,184.406189 
	C44.322815,184.406189 39.765110,184.406189 35.205971,184.406189 
	C35.613789,196.436386 44.052971,206.567123 55.335495,208.889694 
	C66.796204,211.248978 78.626854,205.570816 83.790451,195.232666 
	C90.203812,182.392349 85.693344,169.212646 72.703934,159.943481 
	C76.990677,160.237106 81.275269,160.715714 85.564850,160.765686 
	C88.982140,160.805496 92.405540,160.322296 96.009918,160.869781 
	C99.339783,177.041550 102.669655,193.213303 105.974823,209.265106 
	C111.146820,209.265106 115.773422,209.265106 120.596413,209.265106 
	C123.780777,194.107254 126.938751,179.075043 130.730820,164.447830 
M94.799576,78.714989 
	C90.330544,74.233925 85.781815,69.827888 81.445663,65.221725 
	C80.288094,63.992077 79.408218,62.233513 79.037827,60.575474 
	C77.189262,52.300510 70.275223,46.654140 62.301598,47.158436 
	C54.240829,47.668236 47.589436,54.333279 47.126198,62.364975 
	C46.666821,70.329773 52.367802,77.317322 60.646397,78.995087 
	C61.751141,79.218971 63.117897,79.339973 63.846909,80.043625 
	C71.069145,87.014618 78.182510,94.098419 86.278801,102.090118 
	C76.012627,102.090118 67.239006,102.258354 58.479031,101.986816 
	C55.876392,101.906136 53.109406,100.978806 50.770901,99.761139 
	C45.315624,96.920586 39.918724,96.538368 34.597569,99.567490 
	C29.378252,102.538628 26.586845,107.150803 26.466692,113.435394 
	C84.616493,113.435394 142.482361,113.435394 200.374710,113.435394 
	C199.132095,99.560623 186.320099,93.175583 175.185745,100.585327 
	C174.382980,101.119553 173.530518,101.992279 172.694382,102.000313 
	C162.483459,102.098434 152.271271,102.064102 140.473373,102.064102 
	C148.027313,94.696739 154.342392,88.347168 160.906570,82.266495 
	C162.595337,80.702126 164.953445,79.539619 167.202026,78.958588 
	C174.866043,76.978233 180.492371,69.628105 179.808838,61.986988 
	C179.101547,54.080219 172.648743,47.697437 164.794724,47.135784 
	C157.084656,46.584423 149.743484,52.246132 148.059509,59.975311 
	C147.751526,61.388832 147.588104,63.129333 146.683380,64.070335 
	C139.818375,71.210587 132.785400,78.189339 124.892776,86.136780 
	C124.892776,76.260559 124.691025,67.675949 125.004074,59.110138 
	C125.111176,56.179577 126.037361,53.048485 127.407928,50.438961 
	C131.110825,43.388741 129.808838,35.228764 123.691956,30.132368 
	C117.473495,24.951342 108.788757,25.117954 102.745071,30.534220 
	C96.946198,35.731075 95.787399,44.310532 99.983101,50.964539 
	C100.675865,52.063194 101.937851,53.159855 101.954582,54.272198 
	C102.108154,64.486839 102.045006,74.704735 102.045006,86.275139 
	C99.151802,83.246407 97.228149,81.232643 94.799576,78.714989 
z"/>
<path fill="#F9F9F9" opacity="1.000000" stroke="none" 
	d="
M95.052040,78.966934 
	C97.228149,81.232643 99.151802,83.246407 102.045006,86.275139 
	C102.045006,74.704735 102.108154,64.486839 101.954582,54.272198 
	C101.937851,53.159855 100.675865,52.063194 99.983101,50.964539 
	C95.787399,44.310532 96.946198,35.731075 102.745071,30.534220 
	C108.788757,25.117954 117.473495,24.951342 123.691956,30.132368 
	C129.808838,35.228764 131.110825,43.388741 127.407928,50.438961 
	C126.037361,53.048485 125.111176,56.179577 125.004074,59.110138 
	C124.691025,67.675949 124.892776,76.260559 124.892776,86.136780 
	C132.785400,78.189339 139.818375,71.210587 146.683380,64.070335 
	C147.588104,63.129333 147.751526,61.388832 148.059509,59.975311 
	C149.743484,52.246132 157.084656,46.584423 164.794724,47.135784 
	C172.648743,47.697437 179.101547,54.080219 179.808838,61.986988 
	C180.492371,69.628105 174.866043,76.978233 167.202026,78.958588 
	C164.953445,79.539619 162.595337,80.702126 160.906570,82.266495 
	C154.342392,88.347168 148.027313,94.696739 140.473373,102.064102 
	C152.271271,102.064102 162.483459,102.098434 172.694382,102.000313 
	C173.530518,101.992279 174.382980,101.119553 175.185745,100.585327 
	C186.320099,93.175583 199.132095,99.560623 200.374710,113.435394 
	C142.482361,113.435394 84.616493,113.435394 26.466692,113.435394 
	C26.586845,107.150803 29.378252,102.538628 34.597569,99.567490 
	C39.918724,96.538368 45.315624,96.920586 50.770901,99.761139 
	C53.109406,100.978806 55.876392,101.906136 58.479031,101.986816 
	C67.239006,102.258354 76.012627,102.090118 86.278801,102.090118 
	C78.182510,94.098419 71.069145,87.014618 63.846909,80.043625 
	C63.117897,79.339973 61.751141,79.218971 60.646397,78.995087 
	C52.367802,77.317322 46.666821,70.329773 47.126198,62.364975 
	C47.589436,54.333279 54.240829,47.668236 62.301598,47.158436 
	C70.275223,46.654140 77.189262,52.300510 79.037827,60.575474 
	C79.408218,62.233513 80.288094,63.992077 81.445663,65.221725 
	C85.781815,69.827888 90.330544,74.233925 95.052040,78.966934 
z"/>
<path fill="#F9F9F9" opacity="1.000000" stroke="none" 
	d="
M152.437500,124.442856 
	C160.919510,119.849365 169.488495,119.479927 178.677429,124.306564 
	C187.833176,129.506210 191.210983,137.113464 191.514038,146.840668 
	C186.475555,146.840668 182.040665,146.840668 177.636734,146.840668 
	C176.216248,140.149643 171.988647,135.669296 166.561096,134.989014 
	C162.240738,134.447495 157.192764,138.012695 155.006531,143.508179 
	C154.792236,157.420944 154.527023,170.885742 154.704239,184.344727 
	C154.785446,190.510986 159.767227,194.947144 165.664352,195.035782 
	C171.160843,195.118393 176.372772,191.091125 176.902466,185.714645 
	C177.334198,181.332352 176.990250,176.873611 176.990250,172.119324 
	C173.239594,172.119324 169.975418,172.119324 166.601212,172.119324 
	C166.601212,167.185379 166.601212,162.595306 167.030823,158.040405 
	C175.440292,158.093353 183.420181,158.111115 191.400055,158.128876 
	C191.460068,167.274979 192.076584,176.459305 191.451401,185.558334 
	C190.481339,199.676804 178.639252,209.969635 165.009628,209.439850 
	C150.831696,208.888748 140.075317,197.504807 140.101135,182.864365 
	C140.125183,169.218658 140.336990,155.573303 140.709595,141.173599 
	C142.570419,133.504700 146.351166,128.145111 152.437500,124.442856 
z"/>
<path fill="#FAFAFA" opacity="1.000000" stroke="none" 
	d="
M71.752602,160.057755 
	C85.693344,169.212646 90.203812,182.392349 83.790451,195.232666 
	C78.626854,205.570816 66.796204,211.248978 55.335495,208.889694 
	C44.052971,206.567123 35.613789,196.436386 35.205971,184.406189 
	C39.765110,184.406189 44.322815,184.406189 48.914974,184.406189 
	C52.480442,193.399902 57.465073,196.662430 64.254288,194.391998 
	C69.427002,192.662155 72.286331,188.474503 72.046585,182.979706 
	C71.827942,177.968460 68.502220,173.880936 63.402962,172.762115 
	C60.496021,172.124313 57.432987,172.164719 54.551350,171.451065 
	C46.053066,169.346451 40.343220,163.864090 36.459560,155.491592 
	C33.048817,142.426224 36.467030,132.277878 47.052246,124.699570 
	C55.608482,119.809891 64.297676,119.435234 73.653931,124.334686 
	C81.868309,128.686218 87.081299,138.721680 85.497742,146.994247 
	C83.429993,146.994247 81.292679,146.994247 79.155365,146.994247 
	C76.856583,146.994247 74.557808,146.994247 72.324760,146.994247 
	C71.267601,139.193329 64.182365,133.608704 58.024769,135.319336 
	C52.519543,136.848709 49.101559,142.139587 49.586849,148.380844 
	C49.951160,153.066208 54.391987,157.272507 59.591537,158.027283 
	C63.657795,158.617538 67.699814,159.374725 71.752602,160.057755 
z"/>
<path fill="#FBFBFB" opacity="1.000000" stroke="none" 
	d="
M123.101379,125.387856 
	C123.612396,124.080345 124.123405,122.772827 125.045471,120.413551 
	C129.353745,120.997688 134.058334,121.635559 138.449356,123.000450 
	C137.832596,125.631310 137.599579,127.549477 137.214676,129.436646 
	C134.861176,140.975967 132.473206,152.508224 130.096725,164.042847 
	C126.938751,179.075043 123.780777,194.107254 120.596413,209.265106 
	C115.773422,209.265106 111.146820,209.265106 105.974823,209.265106 
	C102.669655,193.213303 99.339783,177.041550 95.940094,160.081085 
	C93.354828,147.851700 90.839386,136.410995 88.323944,124.970284 
	C88.209846,123.835487 88.095749,122.700691 87.948235,121.233551 
	C92.554703,121.233551 97.038597,121.233551 101.893669,121.233551 
	C102.210625,122.391388 102.587418,123.767815 102.998726,125.940277 
	C105.493469,138.175156 107.953705,149.613983 110.510269,161.470001 
	C111.369919,165.519714 112.133224,169.152206 112.896530,172.784714 
	C113.322510,172.731262 113.748489,172.677811 114.174469,172.624374 
	C114.478584,169.422684 114.782700,166.221008 115.435883,162.848206 
	C116.748573,157.710709 117.702744,152.742493 118.678047,147.778427 
	C120.144737,140.313370 121.626198,132.851227 123.101379,125.387856 
z"/>
<path fill="#3E3E3E" opacity="1.000000" stroke="none" 
	d="
M155.136383,143.057831 
	C157.192764,138.012695 162.240738,134.447495 166.561096,134.989014 
	C171.988647,135.669296 176.216248,140.149643 177.636734,146.840668 
	C182.040665,146.840668 186.475555,146.840668 191.514038,146.840668 
	C191.210983,137.113464 187.833176,129.506210 179.033310,124.398941 
	C185.249939,123.903008 191.730682,122.939827 197.983582,123.745377 
	C203.422058,124.446007 206.484146,129.157623 206.600540,134.603333 
	C206.883636,147.849091 206.692688,161.104980 206.692688,175.015991 
	C202.417816,174.596237 198.506638,174.398544 194.693756,173.679550 
	C193.937241,173.536896 193.212723,171.434052 193.068665,170.167450 
	C192.626358,166.278473 192.473099,162.356628 191.803772,158.288208 
	C183.420181,158.111115 175.440292,158.093353 166.631622,158.225891 
	C165.362473,162.060104 164.922134,165.743988 164.482178,169.424667 
	C155.949341,168.666656 156.048004,168.665115 155.914719,160.168060 
	C155.825226,154.461975 155.407349,148.761063 155.136383,143.057831 
z"/>
<path fill="#3E3E3E" opacity="1.000000" stroke="none" 
	d="
M87.945343,124.824631 
	C90.839386,136.410995 93.354828,147.851700 95.848251,159.681824 
	C92.405540,160.322296 88.982140,160.805496 85.564850,160.765686 
	C81.275269,160.715714 76.990677,160.237106 72.228271,160.000610 
	C67.699814,159.374725 63.657795,158.617538 59.591537,158.027283 
	C54.391987,157.272507 49.951160,153.066208 49.586849,148.380844 
	C49.101559,142.139587 52.519543,136.848709 58.024769,135.319336 
	C64.182365,133.608704 71.267601,139.193329 72.324760,146.994247 
	C74.557808,146.994247 76.856583,146.994247 79.155365,146.994247 
	C81.292679,146.994247 83.429993,146.994247 85.497742,146.994247 
	C87.081299,138.721680 81.868309,128.686218 74.007439,124.430031 
	C78.475075,122.796570 83.110001,121.540390 87.945343,124.824631 
z"/>
<path fill="#3E3E3E" opacity="1.000000" stroke="none" 
	d="
M46.871132,124.287857 
	C36.467030,132.277878 33.048817,142.426224 36.135788,155.344421 
	C35.350067,156.489761 34.673176,157.816299 33.921936,157.859833 
	C30.160654,158.077805 26.379889,157.959641 22.123642,157.959641 
	C22.123642,149.310059 21.725443,141.195374 22.257820,133.142181 
	C22.639143,127.374016 28.155947,123.020134 33.991631,123.053383 
	C38.225853,123.077507 42.457317,123.584473 46.871132,124.287857 
z"/>
<path fill="#3F3F3F" opacity="1.000000" stroke="none" 
	d="
M123.009430,124.963303 
	C121.626198,132.851227 120.144737,140.313370 118.678047,147.778427 
	C117.702744,152.742493 116.748573,157.710709 115.053574,162.836685 
	C113.019440,162.348465 111.716682,161.700638 110.413933,161.052811 
	C107.953705,149.613983 105.493469,138.175156 103.077744,126.341705 
	C104.711372,124.962105 106.224648,123.320236 107.905106,123.126190 
	C111.629730,122.696114 115.444916,122.866379 119.208855,123.064102 
	C120.467407,123.130211 121.682503,124.023544 123.009430,124.963303 
z"/>
<path fill="#3F3F3F" opacity="1.000000" stroke="none" 
	d="
M130.413773,164.245331 
	C132.473206,152.508224 134.861176,140.975967 137.214676,129.436646 
	C137.599579,127.549477 137.832596,125.631310 138.391281,123.441116 
	C142.986130,123.420532 147.325516,123.686310 152.051193,124.197472 
	C146.351166,128.145111 142.570419,133.504700 140.782196,140.707916 
	C140.071915,142.585770 139.110245,144.163681 139.067001,145.766403 
	C138.889969,152.327652 138.993118,158.896454 138.993118,166.662216 
	C135.708527,165.781906 133.219681,165.114868 130.413773,164.245331 
z"/>
<path fill="#030303" opacity="1.000000" stroke="none" 
	d="
M155.006531,143.508179 
	C155.407349,148.761063 155.825226,154.461975 155.914719,160.168060 
	C156.048004,168.665115 155.949341,168.666656 164.482178,169.424667 
	C164.922134,165.743988 165.362473,162.060104 166.202011,158.190720 
	C166.601212,162.595306 166.601212,167.185379 166.601212,172.119324 
	C169.975418,172.119324 173.239594,172.119324 176.990250,172.119324 
	C176.990250,176.873611 177.334198,181.332352 176.902466,185.714645 
	C176.372772,191.091125 171.160843,195.118393 165.664352,195.035782 
	C159.767227,194.947144 154.785446,190.510986 154.704239,184.344727 
	C154.527023,170.885742 154.792236,157.420944 155.006531,143.508179 
z"/>
<path fill="#131313" opacity="1.000000" stroke="none" 
	d="
M110.510269,161.470001 
	C111.716682,161.700638 113.019440,162.348465 114.704506,163.007812 
	C114.782700,166.221008 114.478584,169.422684 114.174469,172.624374 
	C113.748489,172.677811 113.322510,172.731262 112.896530,172.784714 
	C112.133224,169.152206 111.369919,165.519714 110.510269,161.470001 
z"/>
</svg>